# xmcd
#
# Track frame offsets:
#	150
#	22483
#	38808
#	65910
#	86933
#	107457
#	123342
#	142116
#	160156
#	182807
#	206595
#
# Disc length: 3004 seconds
#
# Revision: 2
# Processed by: cddbd v1.5.2PL0 Copyright (c) Steve Scherf et al.
# Submitted via: EasyCDDAExtractor 15.3.0.1
#
DISCID=a60bba0b
DTITLE=Jennifer Lopez - Como Ama Una Mujer (Deluxe Edition)
DYEAR=2007
DGENRE=Latin
TTITLE0=Que Hiciste
TTITLE1=Me Haces Falta
TTITLE2=Como Ama Una Mujer
TTITLE3=Te Voy A Querer
TTITLE4=Por Que Te Marchas
TTITLE5=Por Arriesgarnos
TTITLE6=Tu
TTITLE7=Amarte Es Todo
TTITLE8=Apresurate
TTITLE9=Sola
TTITLE10=Adios
EXTD=
EXTT0=
EXTT1=
EXTT2=
EXTT3=
EXTT4=
EXTT5=
EXTT6=
EXTT7=
EXTT8=
EXTT9=
EXTT10=
PLAYORDER=
